<svg xmlns="http://www.w3.org/2000/svg" viewBox="0 0 141.82 54.18"><defs><style>.cls-1{fill:#6a6a6a;}</style></defs><g id="レイヤー_2" data-name="レイヤー 2"><g id="レイヤー_1-2" data-name="レイヤー 1"><path class="cls-1" d="M139,46.33a20.52,20.52,0,0,1-11.22,6.15,25.87,25.87,0,0,1-18.42-2.66c-7.74-4.34-11.41-11.89-9.92-20.16,1-5.44,4.2-9.44,8.76-12.39,5.93-3.83,12.55-4.31,19.2-3.11,6,1.07,10.77,4.27,13,10.29a53.3,53.3,0,0,1,1.46,6.39h-33.7c-1.34,9.75,4.31,15.78,12.67,17.35a24,24,0,0,0,15.55-2.08,8.86,8.86,0,0,1,2.46-.42Zm-30.7-17.58c8.27,0,16.46,0,24.66,0,.37,0,1.07-.66,1-1-.5-5-1.73-9-7.41-10.76C116.3,13.91,109.26,19.78,108.27,28.75Z"/><path class="cls-1" d="M55.42,0h-3L51.28,1.38a1.27,1.27,0,0,1-.11.13c-4.23,5.33-8.51,10.64-12.77,16-2.27,2.83-4.57,5.65-7.33,9.07l-3-3.7h0c-1.51-1.84-3-3.66-4.52-5.51-2.9-3.56-5.79-7.14-8.69-10.7L9.9.53H9a23.55,23.55,0,0,0-3.36,0H0L14.37,18.25,24.2,30.51V41.74c0,.22,0,.43,0,.65V54.17h8.61V28.43a2.1,2.1,0,0,1,.24-.41c3.76-4.82,7.57-9.6,11.37-14.39l0-.05h0l4.06-5.12L49.66,7h0Z"/><path class="cls-1" d="M87.47,14.09c-1.37-.06-2.74,0-4.12,0,0,8,0,15.76,0,23.49v8.05a3.35,3.35,0,0,1-2.21,2.73,22.55,22.55,0,0,1-12.91,1.91c-4-.49-6.63-3-7.08-7a107.08,107.08,0,0,1-.41-10.75c-.06-6,0-12.06,0-18.57a8,8,0,0,0-1.13.93c-2.27,2.91-4.55,5.83-6.78,8.78A2.32,2.32,0,0,0,52.39,25c.09,6.33,0,12.67.41,19a8.3,8.3,0,0,0,4.05,6.64c3.75,2.43,7.89,3,12.16,3.07a19.82,19.82,0,0,0,10.71-2.41c1.14-.65,2.26-1.32,3.63-2.13,0,1-.06,1.66,0,2.3v1.62h6.37v-39Z"/></g></g></svg>